<svg width="24" height="19" viewBox="0 0 24 19" fill="none" xmlns="http://www.w3.org/2000/svg">
<path d="M19.127 18.0508C17.6426 18.0508 16.8711 17.3184 16.8711 15.9121V2.74805C16.8711 1.3418 17.6426 0.609375 19.127 0.609375H21.5586C23.043 0.609375 23.8145 1.3418 23.8145 2.74805V15.9121C23.8145 17.3184 23.043 18.0508 21.5586 18.0508H19.127ZM19.3906 16.5762H21.3047C22.0078 16.5762 22.252 16.332 22.252 15.6484V3.02148C22.252 2.33789 22.0078 2.08398 21.3047 2.08398H19.3906C18.6875 2.08398 18.4336 2.33789 18.4336 3.02148V15.6484C18.4336 16.332 18.6875 16.5762 19.3906 16.5762ZM10.7383 18.0508C9.26367 18.0508 8.49219 17.3184 8.49219 15.9121V5.44336C8.49219 4.03711 9.26367 3.30469 10.7383 3.30469H13.1797C14.6543 3.30469 15.4355 4.03711 15.4355 5.44336V15.9121C15.4355 17.3184 14.6543 18.0508 13.1797 18.0508H10.7383ZM11.002 16.5762H12.916C13.6191 16.5762 13.873 16.332 13.873 15.6484V5.7168C13.873 5.0332 13.6191 4.7793 12.9258 4.7793H11.002C10.3086 4.7793 10.0547 5.0332 10.0547 5.7168V15.6484C10.0547 16.332 10.3086 16.5762 11.002 16.5762ZM2.35938 18.0508C0.875 18.0508 0.103516 17.3184 0.103516 15.9121V8.13867C0.103516 6.73242 0.875 6 2.35938 6H4.79102C6.26562 6 7.04688 6.73242 7.04688 8.13867V15.9121C7.04688 17.3184 6.26562 18.0508 4.79102 18.0508H2.35938ZM2.62305 16.5762H4.53711C5.24023 16.5762 5.48438 16.332 5.48438 15.6484V8.40234C5.48438 7.71875 5.24023 7.47461 4.53711 7.47461H2.62305C1.91992 7.47461 1.66602 7.71875 1.66602 8.40234V15.6484C1.66602 16.332 1.91992 16.5762 2.62305 16.5762Z" fill="#2F2F2F"/>
</svg>
