<svg width="41" height="41" viewBox="0 0 41 41" fill="none" xmlns="http://www.w3.org/2000/svg">
<path d="M35.6077 27.4338C35.6077 34.9262 28.9877 41 20.8214 41C12.6552 41 6.0352 34.9262 6.0352 27.4338C6.0352 19.9414 12.6552 13.8676 20.8214 13.8676C28.9877 13.8676 35.6077 19.9414 35.6077 27.4338Z" fill="#0F8046"/>
<path d="M41 20.4803C41 31.7913 31.8218 40.9607 20.5 40.9607C9.17816 40.9607 0 31.7913 0 20.4803C0 9.16936 9.17816 0 20.5 0C31.8218 0 41 9.16936 41 20.4803Z" fill="#0F8046"/>
<path d="M19.6813 26.2404V21.2997H14.7348C14.2824 21.2997 13.9158 20.933 13.9157 20.4807C13.9157 20.0283 14.2823 19.6611 14.7348 19.6611H19.6813V14.7204C19.6813 14.2679 20.0479 13.9014 20.5004 13.9014C20.9528 13.9014 21.3194 14.2679 21.3194 14.7204V19.6611H26.266C26.7184 19.6611 27.085 20.0283 27.085 20.4807C27.0849 20.933 26.7184 21.2997 26.266 21.2997H21.3194V26.2404C21.3194 26.6929 20.9528 27.0601 20.5004 27.0601C20.0479 27.0601 19.6813 26.6929 19.6813 26.2404Z" fill="white"/>
</svg>
