<svg width="20" height="20" viewBox="0 0 20 20" fill="none" xmlns="http://www.w3.org/2000/svg">
<path d="M10.3633 19.793C5.13867 19.793 0.900391 15.5547 0.900391 10.3301C0.900391 5.10547 5.13867 0.867188 10.3633 0.867188C15.5879 0.867188 19.8262 5.10547 19.8262 10.3301C19.8262 15.5547 15.5879 19.793 10.3633 19.793ZM10.3633 18.123C14.6699 18.123 18.1562 14.6367 18.1562 10.3301C18.1562 6.02344 14.6699 2.53711 10.3633 2.53711C6.05664 2.53711 2.58008 6.02344 2.58008 10.3301C2.58008 14.6367 6.05664 18.123 10.3633 18.123ZM5.58789 11.375C5.20703 11.375 4.91406 11.082 4.91406 10.7012C4.91406 10.3301 5.20703 10.0371 5.58789 10.0371H9.68945V4.5293C9.68945 4.1582 9.98242 3.86523 10.3535 3.86523C10.7344 3.86523 11.0371 4.1582 11.0371 4.5293V10.7012C11.0371 11.082 10.7344 11.375 10.3535 11.375H5.58789Z" fill="#2F2F2F"/>
</svg>
