<svg width="22" height="21" viewBox="0 0 22 21" fill="none" xmlns="http://www.w3.org/2000/svg">
<path d="M10.9238 19.2168C10.6992 19.2168 10.4844 19.207 10.2598 19.1875L9.76172 20.1348C9.625 20.3789 9.41016 20.4961 9.13672 20.4473C8.87305 20.3887 8.70703 20.2129 8.66797 19.9395L8.52148 18.8848C8.0918 18.7676 7.67188 18.6113 7.28125 18.4355L6.48047 19.1484C6.27539 19.334 6.03125 19.3633 5.77734 19.2266C5.55273 19.0898 5.45508 18.8555 5.51367 18.5918L5.73828 17.5469C5.37695 17.293 5.03516 17.0098 4.72266 16.6875L3.73633 17.0977C3.48242 17.1953 3.23828 17.1465 3.05273 16.9316C2.88672 16.7266 2.85742 16.4727 3.01367 16.2383L3.58008 15.3398C3.33594 14.9688 3.11133 14.5879 2.91602 14.1973L1.85156 14.2266C1.57812 14.2363 1.37305 14.1094 1.26562 13.8359C1.1875 13.582 1.24609 13.3477 1.4707 13.1816L2.32031 12.5176C2.20312 12.0977 2.125 11.668 2.08594 11.2188L1.07031 10.8867C0.796875 10.8086 0.650391 10.6035 0.650391 10.3301C0.650391 10.0566 0.796875 9.85156 1.07031 9.77344L2.08594 9.45117C2.125 8.99219 2.20312 8.5625 2.32031 8.13281L1.4707 7.47852C1.24609 7.3125 1.17773 7.07812 1.27539 6.82422C1.36328 6.56055 1.57812 6.41406 1.86133 6.43359L2.91602 6.47266C3.11133 6.07227 3.33594 5.69141 3.58008 5.33008L3.01367 4.42188C2.86719 4.1875 2.87695 3.93359 3.05273 3.72852C3.23828 3.52344 3.48242 3.45508 3.73633 3.5625L4.72266 3.97266C5.03516 3.66016 5.36719 3.37695 5.73828 3.12305L5.51367 2.06836C5.45508 1.80469 5.54297 1.57031 5.78711 1.43359C6.03125 1.30664 6.28516 1.32617 6.48047 1.51172L7.26172 2.22461C7.67188 2.04883 8.08203 1.89258 8.51172 1.77539L8.66797 0.710938C8.70703 0.447266 8.87305 0.251953 9.14648 0.212891C9.41016 0.173828 9.63477 0.28125 9.76172 0.525391L10.2598 1.47266C10.4844 1.45312 10.6992 1.44336 10.9238 1.44336C11.1484 1.44336 11.3633 1.45312 11.5879 1.47266L12.0859 0.525391C12.2129 0.28125 12.4375 0.164062 12.7109 0.212891C12.9746 0.271484 13.1406 0.447266 13.1797 0.710938L13.3262 1.77539C13.7559 1.89258 14.1758 2.03906 14.5664 2.22461L15.3672 1.51172C15.5723 1.32617 15.8164 1.29688 16.0703 1.43359C16.2949 1.57031 16.3926 1.79492 16.334 2.06836L16.1094 3.11328C16.4707 3.36719 16.8125 3.65039 17.125 3.96289L18.1113 3.5625C18.3652 3.46484 18.6094 3.51367 18.8047 3.72852C18.9609 3.93359 18.9902 4.1875 18.834 4.42188L18.2676 5.32031C18.5117 5.68164 18.7363 6.0625 18.9316 6.46289L19.9961 6.43359C20.2695 6.42383 20.4844 6.55078 20.582 6.81445C20.6602 7.07812 20.6016 7.3125 20.377 7.47852L19.5371 8.13281C19.6445 8.5625 19.7227 8.99219 19.7617 9.45117L20.7773 9.77344C21.0508 9.85156 21.1973 10.0566 21.1973 10.3301C21.1973 10.6035 21.0508 10.8086 20.7773 10.8867L19.7617 11.2188C19.7227 11.668 19.6445 12.0977 19.5371 12.5176L20.377 13.1816C20.6016 13.3477 20.6699 13.582 20.5723 13.8359C20.4844 14.0996 20.2695 14.2363 19.9863 14.2266L18.9316 14.1875C18.7363 14.5781 18.5117 14.9688 18.2676 15.3301L18.834 16.2383C18.9902 16.4727 18.9805 16.7168 18.7949 16.9316C18.6094 17.1367 18.375 17.2051 18.1113 17.0977L17.125 16.6875C16.8125 17 16.4707 17.2832 16.1094 17.5371L16.334 18.5918C16.3926 18.8555 16.3047 19.0898 16.0605 19.2266C15.8164 19.3535 15.5625 19.334 15.3672 19.1484L14.5762 18.4355C14.1758 18.6113 13.7656 18.7676 13.3359 18.8848L13.1797 19.9492C13.1406 20.2129 12.9746 20.3984 12.7012 20.4473C12.4375 20.4863 12.2129 20.3789 12.0859 20.1348L11.5879 19.1875C11.3633 19.207 11.1484 19.2168 10.9238 19.2168ZM10.9336 7.85938C12.0566 7.85938 13.0039 8.61133 13.3066 9.63672H18.1602C17.8086 5.94531 14.7031 3.06445 10.9238 3.06445C9.82031 3.06445 8.77539 3.30859 7.83789 3.74805L10.2891 7.9375C10.4941 7.88867 10.709 7.85938 10.9336 7.85938ZM3.6582 10.3301C3.6582 12.7227 4.81055 14.8418 6.59766 16.1699L9.12695 12.0293C8.7168 11.5801 8.45312 10.9844 8.45312 10.3301C8.45312 9.67578 8.70703 9.08984 9.11719 8.65039L6.65625 4.45117C4.83984 5.76953 3.6582 7.9082 3.6582 10.3301ZM10.9336 11.3652C11.5 11.3652 11.9688 10.8965 11.9688 10.3301C11.9688 9.75391 11.5 9.29492 10.9336 9.29492C10.3574 9.29492 9.88867 9.75391 9.88867 10.3301C9.88867 10.8965 10.3574 11.3652 10.9336 11.3652ZM10.9238 17.5957C14.7129 17.5957 17.8281 14.6953 18.1602 10.9941H13.3066C13.0234 12.0391 12.0664 12.8008 10.9336 12.8008C10.709 12.8008 10.5039 12.7715 10.2988 12.7227L7.76953 16.8828C8.72656 17.3418 9.79102 17.5957 10.9238 17.5957Z" fill="#2F2F2F"/>
</svg>
