<svg width="24" height="21" viewBox="0 0 24 21" fill="none" xmlns="http://www.w3.org/2000/svg">
<path d="M1.70312 10.5352C1.17578 10.5352 0.853516 10.1543 0.853516 9.74414C0.853516 9.51953 0.951172 9.27539 1.17578 9.09961L10.8047 1.01367C11.166 0.701172 11.5664 0.554688 11.9668 0.554688C12.3672 0.554688 12.7773 0.701172 13.1387 1.01367L17.9336 5.03711V3.28906C17.9336 2.87891 18.207 2.625 18.6074 2.625H19.6816C20.082 2.625 20.3457 2.87891 20.3457 3.28906V7.06836L22.7676 9.09961C22.9824 9.27539 23.0801 9.51953 23.0801 9.74414C23.0801 10.1543 22.7676 10.5352 22.2402 10.5352C21.9668 10.5352 21.7422 10.3887 21.5469 10.2227L20.3457 9.2168V18.0156C20.3457 19.334 19.5645 20.1055 18.2168 20.1055H5.7168C4.37891 20.1055 3.58789 19.334 3.58789 18.0156V9.2168L2.39648 10.2227C2.20117 10.3887 1.9668 10.5352 1.70312 10.5352ZM14.6426 13.0938V18.5039H17.8457C18.4316 18.5039 18.7539 18.1816 18.7539 17.5859V7.87891L12.3184 2.47852C12.2109 2.38086 12.084 2.3418 11.9668 2.3418C11.8594 2.3418 11.7324 2.38086 11.625 2.47852L5.18945 7.87891V17.5859C5.18945 18.1816 5.50195 18.5039 6.08789 18.5039H9.29102V13.0938C9.29102 12.6641 9.58398 12.3906 10.0039 12.3906H13.9395C14.3691 12.3906 14.6426 12.6641 14.6426 13.0938Z" fill="#2F2F2F"/>
</svg>
